<?xml version="1.0" standalone="no"?>
<!DOCTYPE svg PUBLIC "-//W3C//DTD SVG 20010904//EN"
 "http://www.w3.org/TR/2001/REC-SVG-20010904/DTD/svg10.dtd">
<svg version="1.0" xmlns="http://www.w3.org/2000/svg"
 width="50.000000pt" height="50.000000pt" viewBox="0 0 50.000000 50.000000"
 preserveAspectRatio="xMidYMid meet">

<g transform="translate(0.000000,50.000000) scale(0.100000,-0.100000)"
fill="#000000" stroke="none">
<path d="M164 336 c-19 -19 -34 -40 -34 -47 0 -8 9 0 20 18 10 17 32 39 47 47
15 8 22 15 15 16 -8 0 -29 -15 -48 -34z"/>
<path d="M307 350 c17 -10 39 -32 47 -47 8 -15 15 -22 16 -14 0 17 -64 81 -81
81 -8 0 0 -9 18 -20z"/>
<path d="M225 340 c3 -5 0 -7 -8 -4 -8 3 -26 -8 -42 -27 -22 -27 -26 -39 -21
-68 18 -114 174 -114 192 0 5 29 1 41 -21 68 -16 19 -34 30 -42 27 -8 -3 -11
-1 -8 4 4 6 -7 10 -25 10 -18 0 -29 -4 -25 -10z m13 -62 c8 -8 15 -8 27 2 20
17 32 5 15 -15 -10 -12 -10 -18 0 -30 7 -9 10 -18 7 -22 -4 -3 -13 0 -22 7
-12 10 -18 10 -30 0 -20 -17 -32 -5 -15 15 10 12 10 19 2 27 -7 7 -12 16 -12
20 0 12 14 10 28 -4z"/>
<path d="M130 212 c0 -18 64 -82 82 -82 7 0 -1 9 -19 20 -17 10 -39 32 -47 47
-8 15 -15 22 -16 15z"/>
<path d="M352 195 c-6 -14 -26 -34 -44 -45 -18 -11 -28 -20 -22 -20 26 0 95
73 81 86 -2 2 -9 -7 -15 -21z"/>
</g>
</svg>
