<?xml version="1.0" standalone="no"?>
<!DOCTYPE svg PUBLIC "-//W3C//DTD SVG 20010904//EN"
 "http://www.w3.org/TR/2001/REC-SVG-20010904/DTD/svg10.dtd">
<svg version="1.0" xmlns="http://www.w3.org/2000/svg"
 width="48.000000pt" height="48.000000pt" viewBox="0 0 48.000000 48.000000"
 preserveAspectRatio="xMidYMid meet">

<g transform="translate(0.000000,48.000000) scale(0.100000,-0.100000)"
fill="#000000" stroke="none">
<path d="M153 419 c-24 -12 -43 -27 -43 -35 0 -18 3 -18 52 7 57 29 133 23
181 -14 47 -36 72 -101 64 -167 -5 -38 -3 -50 7 -50 31 0 36 103 7 165 -47
102 -168 144 -268 94z"/>
<path d="M50 304 c-23 -60 -4 -152 43 -203 32 -34 95 -61 147 -61 45 0 130 31
130 48 0 19 -14 19 -57 0 -58 -25 -119 -20 -172 15 -55 36 -75 85 -68 164 7
66 -5 85 -23 37z"/>
<path d="M260 265 l-44 -45 -21 20 c-24 22 -45 26 -45 8 0 -15 50 -68 65 -68
15 0 115 103 115 118 0 24 -27 11 -70 -33z"/>
</g>
</svg>
